#!OML:ASF G:\ViconDB\ViconDB\414\test\team2\shane.ASF
:FULLY-SPECIFIED
:DEGREES
242
root 0.883645 16.5281 12.5226 -9.0693 10.1542 -8.68562
lowerback 6.28167 -4.74016 -1.8802
upperback 2.49248 -6.37444 6.69581
thorax 0.0659244 -3.2887 8.42444
lowerneck -14.5495 0.0384076 -8.82169
upperneck 18.9226 0.70082 6.7666
head 8.19987 0.386334 3.824
rclavicle 3.47066e-014 -5.32743e-014
rhumerus -50.1108 -9.96394 -61.1884
rradius 19.489
rwrist 57.0944
rhand -26.3055 -13.1045
rfingers 7.12502
rthumb 0.250664 -43.0841
lclavicle 3.47066e-014 -5.32743e-014
lhumerus -18.6883 -14.5609 98.986
lradius 33.7637
lwrist -23.5264
lhand -42.5634 5.34481
lfingers 7.12502
lthumb -15.4379 34.7483
rfemur -15.2497 -28.6891 25.6502
rtibia 35.0984
rfoot -18.6683 13.6456
rtoes -7.47461
lfemur 30.7082 -3.4004 -4.05409
ltibia 15.1734
lfoot -8.6419 -22.0972
ltoes -31.9816
243
root 0.860669 16.5517 12.7244 -8.9548 9.85831 -8.53258
lowerback 6.09839 -4.51248 -1.82241
upperback 2.54575 -6.07093 6.62636
thorax 0.159877 -3.13667 8.28468
lowerneck -14.6746 -0.0649324 -8.90611
upperneck 19.0097 0.558161 6.90231
head 8.26275 0.326936 3.87338
rclavicle 6.7711e-014 -1.11319e-013
rhumerus -49.6501 -10.2162 -61.7467
rradius 19.4982
rwrist 57.1749
rhand -26.8331 -13.3782
rfingers 7.12502
rthumb -0.258912 -43.3578
lclavicle 6.7711e-014 -1.11319e-013
lhumerus -19.1754 -14.0027 99.172
lradius 33.519
lwrist -23.1135
lhand -42.5945 5.46613
lfingers 7.12502
lthumb -15.4678 34.8673
rfemur -14.4446 -28.2023 25.4498
rtibia 35.1244
rfoot -19.0719 13.472
rtoes -6.61395
lfemur 27.8936 -2.78688 -3.61053
ltibia 21.4046
lfoot -7.70305 -22.7054
ltoes -30.629
244
root 0.836828 16.5723 12.9291 -9.09864 10.0881 -8.85046
lowerback 6.13552 -4.59814 -1.77712
upperback 2.6256 -6.18614 6.78054
thorax 0.254539 -3.20163 8.4285
lowerneck -14.8202 0.0835185 -8.5879
upperneck 19.126 0.747006 6.66755
head 8.31459 0.415842 3.76514
rclavicle -3.60421e-014 -2.54444e-014
rhumerus -48.7993 -9.84046 -62.7739
rradius 19.6073
rwrist 56.7697
rhand -26.5121 -13.4166
rfingers 7.12502
rthumb 0.0511783 -43.3963
lclavicle -3.60421e-014 -2.54444e-014
lhumerus -19.7675 -13.166 99.1176
lradius 33.4094
lwrist -23.0241
lhand -42.406 5.4371
lfingers 7.12502
lthumb -15.2863 34.8522
rfemur -13.3648 -28.5909 25.5145
rtibia 35.0073
rfoot -19.5757 13.6931
rtoes -6.26843
lfemur 25.4044 -2.75181 -2.79879
ltibia 26.8491
lfoot -6.24574 -23.2479
ltoes -28.4058
245
root 0.827159 16.5805 13.1387 -9.46419 9.66449 -9.19905
lowerback 6.06833 -4.3751 -1.08562
upperback 2.8628 -5.85798 6.77136
thorax 0.413037 -3.0335 7.99328
lowerneck -14.8922 0.00313286 -8.43204
upperneck 19.1667 0.601209 6.67691
head 8.35409 0.359664 3.72848
rclavicle 7.55382e-014 -6.75868e-014
rhumerus -48.3152 -9.66677 -63.9783
rradius 19.8468
rwrist 55.9618
rhand -26.7298 -13.5431
rfingers 7.12502
rthumb -0.159094 -43.5228
lclavicle 7.55382e-014 -6.75868e-014
lhumerus -20.395 -12.7658 99.2092
lradius 33.184
lwrist -22.7853
lhand -42.3831 5.2576
lfingers 7.12502
lthumb -15.2642 34.6744
rfemur -11.952 -29.155 25.4959
rtibia 34.818
rfoot -20.0561 14.6084
rtoes -6.06057
lfemur 23.6108 -2.31937 -1.94747
ltibia 31.7728
lfoot -4.58577 -23.663
ltoes -25.165
246
root 0.800656 16.605 13.326 -9.46547 9.72843 -9.40337
lowerback 6.1997 -3.21425 2.53189
upperback 2.47675 -4.05945 5.21547
thorax -0.705502 -2.04084 4.24049
lowerneck -13.96 -1.32626 -8.53426
upperneck 19.0306 -1.68039 8.51371
head 8.3417 -0.554031 4.11369
rclavicle 1.13602e-014 -4.92986e-014
rhumerus -50.5368 -13.2592 -64.7937
rradius 20.5633
rwrist 54.0301
rhand -26.2608 -13.3488
rfingers 7.12502
rthumb 0.293839 -43.3283
lclavicle 1.13602e-014 -4.92986e-014
lhumerus -22.3591 -18.0244 99.6123
lradius 33.1978
lwrist -21.2751
lhand -42.1115 5.8293
lfingers 7.12502
lthumb -15.0025 35.2658
rfemur -11.0219 -29.0951 25.6459
rtibia 34.4931
rfoot -20.4653 14.1849
rtoes -6.12427
lfemur 21.291 -2.16665 -1.29934
ltibia 36.3339
lfoot -3.12793 -23.8101
ltoes -21.3536
247
root 0.787724 16.6257 13.5099 -9.71234 9.83781 -9.21843
lowerback 6.75323 -4.13418 -0.965637
upperback 2.86416 -5.50425 6.69681
thorax -0.0374639 -2.84001 7.8936
lowerneck -14.8239 -0.159188 -8.26063
upperneck 19.1677 0.269499 6.95617
head 8.36815 0.243322 3.75832
rclavicle 1.2424e-014 1.51076e-014
rhumerus -46.8588 -8.08372 -66.9735
rradius 19.9901
rwrist 54.2208
rhand -27.9571 -13.7827
rfingers 7.12502
rthumb -1.34452 -43.7582
lclavicle 1.2424e-014 1.51076e-014
lhumerus -21.6928 -12.5377 99.3086
lradius 32.6375
lwrist -22.2317
lhand -41.9714 5.78904
lfingers 7.12502
lthumb -14.8676 35.2356
rfemur -9.73407 -29.6792 25.0563
rtibia 34.1446
rfoot -20.645 14.532
rtoes -5.78201
lfemur 19.3962 -2.23627 -1.27915
ltibia 40.5245
lfoot -2.23619 -23.5545
ltoes -17.3746
